<svg width="32" height="32" viewBox="0 0 32 32" fill="none" xmlns="http://www.w3.org/2000/svg">
<g clip-path="url(#clip0_150_50)">
<rect width="32" height="32" fill="black"/>
<g filter="url(#filter0_ddddd_150_50)">
<path d="M9.07617 21.5156C9.05013 22.1081 8.33073 22.4694 6.91797 22.5996C6.86589 22.7038 6.86589 22.8568 6.91797 23.0586C8.14844 23.0195 9.02083 23 9.53516 23C10.349 23 11.2767 23.0195 12.3184 23.0586C12.3704 22.8568 12.3704 22.7038 12.3184 22.5996C10.8926 22.4694 10.1732 22.1081 10.1602 21.5156C10.0951 19.4909 10.0625 17.7266 10.0625 16.2227C10.0625 14.1654 10.0885 12.3457 10.1406 10.7637H10.2383L15.0039 22.7559H15.1016L19.5547 10.998H19.6426C19.7077 12.9577 19.7402 14.6992 19.7402 16.2227C19.7402 18.3385 19.7077 20.1452 19.6426 21.6426C19.6296 21.8118 19.5514 21.9583 19.4082 22.082C19.2715 22.1992 19.0664 22.2936 18.793 22.3652C18.5195 22.4303 18.2884 22.4759 18.0996 22.502C17.9108 22.528 17.6699 22.554 17.377 22.5801C17.3249 22.6842 17.3249 22.8372 17.377 23.0391C18.4837 23 19.6165 22.9805 20.7754 22.9805C22.1621 22.9805 23.4967 23 24.7793 23.0391C24.8314 22.9219 24.8314 22.7689 24.7793 22.5801C22.6178 22.4499 21.5306 22.1439 21.5176 21.6621C21.4395 19.6178 21.4004 17.5638 21.4004 15.5C21.4004 13.5013 21.4264 11.6816 21.4785 10.041C21.4915 9.55924 22.5788 9.25326 24.7402 9.12305C24.7923 8.93424 24.7923 8.78125 24.7402 8.66406C23.4577 8.70312 21.752 8.72266 19.623 8.72266L15.4629 19.582L11.459 8.72266C9.87044 8.72266 8.46419 8.69661 7.24023 8.64453C7.17513 8.77474 7.17513 8.89844 7.24023 9.01562C8.01497 9.1263 8.51953 9.28906 8.75391 9.50391C8.99479 9.71224 9.12174 10.1973 9.13477 10.959C9.18034 12.5605 9.20312 14.0742 9.20312 15.5C9.20312 17.4727 9.16081 19.4779 9.07617 21.5156ZM8.67578 21.5156C8.76042 19.4648 8.80273 17.4596 8.80273 15.5C8.80273 14.0742 8.77995 12.5605 8.73438 10.959C8.72135 10.36 8.60417 9.97591 8.38281 9.80664C8.16797 9.63086 7.69922 9.49414 6.97656 9.39648C6.79427 8.99935 6.80078 8.60872 6.99609 8.22461C8.49349 8.28971 10.4401 8.32227 12.8359 8.32227L16.0391 16.877L19.3398 8.32227C21.0846 8.32227 23.0117 8.29622 25.1211 8.24414C25.2513 8.66732 25.2643 9.08724 25.1602 9.50391C23.7214 9.64714 22.9954 9.83919 22.9824 10.0801C22.9238 11.304 22.8945 13.1107 22.8945 15.5C22.8945 17.9674 22.9368 20.0085 23.0215 21.623C23.0345 21.8639 23.7604 22.056 25.1992 22.1992C25.3034 22.6159 25.2904 23.0358 25.1602 23.459C23.0508 23.4069 21.8236 23.3809 21.4785 23.3809C20.9577 23.3809 19.4993 23.4069 17.1035 23.459C16.9408 23.0033 16.9408 22.5833 17.1035 22.1992C18.5163 22.056 19.2292 21.8704 19.2422 21.6426C19.3073 20.1191 19.3398 18.3125 19.3398 16.2227C19.3398 14.5951 19.3333 13.4004 19.3203 12.6387L15.375 23.1562H14.7207L10.4629 12.4238V16.2227C10.4629 17.7266 10.4954 19.4909 10.5605 21.5156C10.5736 21.8672 11.2865 22.1016 12.6992 22.2188C12.862 22.6094 12.862 23.0293 12.6992 23.4785C10.7526 23.4004 8.73112 23.4004 6.63477 23.4785C6.47852 23.0293 6.47852 22.6094 6.63477 22.2188C7.98242 22.0885 8.66276 21.8542 8.67578 21.5156Z" fill="white"/>
</g>
</g>
<defs>
<filter id="filter0_ddddd_150_50" x="-57.5996" y="-2.77539" width="146.955" height="319.254" filterUnits="userSpaceOnUse" color-interpolation-filters="sRGB">
<feFlood flood-opacity="0" result="BackgroundImageFix"/>
<feColorMatrix in="SourceAlpha" type="matrix" values="0 0 0 0 0 0 0 0 0 0 0 0 0 0 0 0 0 0 127 0" result="hardAlpha"/>
<feOffset dy="9"/>
<feGaussianBlur stdDeviation="10"/>
<feColorMatrix type="matrix" values="0 0 0 0 1 0 0 0 0 1 0 0 0 0 1 0 0 0 0.29 0"/>
<feBlend mode="normal" in2="BackgroundImageFix" result="effect1_dropShadow_150_50"/>
<feColorMatrix in="SourceAlpha" type="matrix" values="0 0 0 0 0 0 0 0 0 0 0 0 0 0 0 0 0 0 127 0" result="hardAlpha"/>
<feOffset dy="37"/>
<feGaussianBlur stdDeviation="18.5"/>
<feColorMatrix type="matrix" values="0 0 0 0 1 0 0 0 0 1 0 0 0 0 1 0 0 0 0.26 0"/>
<feBlend mode="normal" in2="effect1_dropShadow_150_50" result="effect2_dropShadow_150_50"/>
<feColorMatrix in="SourceAlpha" type="matrix" values="0 0 0 0 0 0 0 0 0 0 0 0 0 0 0 0 0 0 127 0" result="hardAlpha"/>
<feOffset dy="82"/>
<feGaussianBlur stdDeviation="24.5"/>
<feColorMatrix type="matrix" values="0 0 0 0 1 0 0 0 0 1 0 0 0 0 1 0 0 0 0.15 0"/>
<feBlend mode="normal" in2="effect2_dropShadow_150_50" result="effect3_dropShadow_150_50"/>
<feColorMatrix in="SourceAlpha" type="matrix" values="0 0 0 0 0 0 0 0 0 0 0 0 0 0 0 0 0 0 127 0" result="hardAlpha"/>
<feOffset dy="147"/>
<feGaussianBlur stdDeviation="29.5"/>
<feColorMatrix type="matrix" values="0 0 0 0 1 0 0 0 0 1 0 0 0 0 1 0 0 0 0.04 0"/>
<feBlend mode="normal" in2="effect3_dropShadow_150_50" result="effect4_dropShadow_150_50"/>
<feColorMatrix in="SourceAlpha" type="matrix" values="0 0 0 0 0 0 0 0 0 0 0 0 0 0 0 0 0 0 127 0" result="hardAlpha"/>
<feOffset dy="229"/>
<feGaussianBlur stdDeviation="32"/>
<feColorMatrix type="matrix" values="0 0 0 0 1 0 0 0 0 1 0 0 0 0 1 0 0 0 0.01 0"/>
<feBlend mode="normal" in2="effect4_dropShadow_150_50" result="effect5_dropShadow_150_50"/>
<feBlend mode="normal" in="SourceGraphic" in2="effect5_dropShadow_150_50" result="shape"/>
</filter>
<clipPath id="clip0_150_50">
<rect width="32" height="32" fill="white"/>
</clipPath>
</defs>
</svg>
