<svg width="32" height="32" viewBox="0 0 32 32" fill="none" xmlns="http://www.w3.org/2000/svg">
<path fill-rule="evenodd" clip-rule="evenodd" d="M28.5 7.03006C28.5 5.08047 26.9195 3.5 24.9699 3.5H7.03006C5.08047 3.5 3.5 5.08047 3.5 7.03006V24.9699C3.5 26.9196 5.08047 28.5 7.03006 28.5H24.9699C26.9195 28.5 28.5 26.9196 28.5 24.9699V7.03006ZM24.2112 14.4036C22.5982 14.4217 21.0953 13.934 19.7757 13.0309V19.3707C19.7757 22.1884 17.8469 24.6088 15.1195 25.241C11.3987 26.0899 8.24878 23.3987 7.8515 20.1836C7.43606 16.9685 9.48656 14.1508 12.6294 13.5186C13.2435 13.3922 14.1672 13.3922 14.6437 13.5006V16.8962C14.4971 16.8602 14.3598 16.824 14.2153 16.806C12.987 16.5892 11.7974 17.2033 11.3097 18.3232C10.8221 19.4431 11.1485 20.7435 12.1419 21.5022C12.9727 22.1524 13.8946 22.2427 14.8338 21.8092C15.7731 21.3938 16.2778 20.6352 16.3862 19.6057C16.4042 19.4612 16.4032 19.2986 16.4032 19.136V6.94394C16.4032 6.60078 16.4059 6.61575 16.7491 6.61575H19.4403C19.6391 6.61575 19.7114 6.64434 19.7294 6.87928C19.8738 8.9745 21.4646 10.7589 23.5056 11.0298C23.7224 11.0659 23.9546 11.0802 24.2112 11.0983V14.4036Z" fill="black"/>
</svg>
